<?xml version="1.0" standalone="no"?>
<!DOCTYPE svg PUBLIC "-//W3C//DTD SVG 20010904//EN"
 "http://www.w3.org/TR/2001/REC-SVG-20010904/DTD/svg10.dtd">
<svg version="1.0" xmlns="http://www.w3.org/2000/svg"
 width="1068.000000pt" height="1066.000000pt" viewBox="0 0 1068.000000 1066.000000"
 preserveAspectRatio="xMidYMid meet">
<metadata>
Created by Potrace Professional 1.1m
</metadata>
<g transform="translate(-0.000000,1066.000000) rotate(-360.00) scale(0.095238,-0.095238)"
fill="#000000" stroke="none">
<path d="M966 11183 c0 -6 -24 -11 -52 -11 -29 0 -53 -5 -53 -10 0 -6 -14 -11
-31 -11 -17 0 -34 -5 -37 -10 -4 -6 -16 -11 -27 -11 -11 0 -38 -8 -60 -17 -21
-10 -65 -30 -97 -45 -32 -15 -62 -31 -68 -35 -6 -5 -34 -23 -62 -41 -28 -19
-89 -72 -137 -118 -47 -47 -101 -105 -119 -129 -19 -24 -34 -48 -34 -55 0 -6
-4 -12 -8 -12 -4 0 -13 -10 -19 -23 -6 -13 -23 -47 -38 -76 -14 -29 -34 -71
-44 -92 -9 -22 -17 -49 -17 -60 0 -11 -4 -23 -9 -26 -4 -2 -15 -43 -22 -89 -8
-47 -19 -85 -23 -85 -5 0 -9 -2086 -9 -4636 0 -2689 4 -4635 9 -4635 5 0 15
-32 22 -71 7 -39 16 -81 21 -92 4 -12 17 -47 27 -79 11 -32 33 -81 49 -110 17
-29 33 -61 37 -71 3 -10 10 -18 15 -18 5 0 9 -6 9 -13 0 -7 20 -36 44 -66 25
-29 48 -54 53 -56 4 -2 8 -10 8 -19 0 -8 4 -14 8 -14 5 0 36 -27 71 -59 34
-31 84 -72 110 -89 26 -17 52 -34 58 -39 6 -4 37 -20 68 -36 32 -15 76 -36 98
-45 23 -9 50 -16 61 -16 11 0 20 -5 20 -10 0 -6 16 -11 36 -11 20 0 39 -5 42
-10 4 -6 25 -11 48 -11 23 0 42 -5 42 -10 0 -7 1557 -11 4651 -11 2730 0 4652
4 4652 9 0 6 17 12 39 16 22 3 57 9 79 13 21 3 42 11 45 16 3 5 15 9 26 9 11
0 38 8 60 17 21 10 65 30 97 45 32 15 59 31 61 35 2 4 9 8 15 8 6 0 38 20 70
44 32 24 92 77 133 118 41 41 89 94 107 118 19 24 34 48 34 55 0 6 4 12 8 12
4 0 13 10 19 23 6 13 23 47 38 76 15 29 35 71 44 92 9 22 17 47 17 56 0 8 4
23 10 34 5 10 15 46 21 81 6 34 16 64 22 66 6 3 10 1609 10 4649 0 2695 -4
4646 -9 4646 -5 0 -15 31 -22 70 -7 39 -22 97 -34 129 -12 32 -23 68 -26 81
-3 13 -10 24 -15 24 -5 0 -9 7 -10 16 0 9 -11 35 -26 58 -14 22 -26 46 -26 52
0 6 -4 11 -9 11 -5 0 -12 8 -16 18 -3 10 -12 27 -19 37 -8 11 -42 50 -76 87
-34 38 -93 93 -131 124 -38 31 -107 77 -154 103 -46 26 -110 55 -142 66 -31
10 -66 23 -78 27 -11 5 -35 12 -52 15 -18 4 -52 10 -76 13 -25 3 -45 9 -45 15
0 5 -1900 9 -4641 9 -3087 0 -4641 -4 -4641 -10z m9324 -409 c20 -8 46 -18 58
-22 11 -4 41 -17 65 -28 25 -10 45 -23 45 -27 0 -4 9 -8 20 -8 12 0 25 -6 29
-13 5 -7 28 -27 51 -45 23 -17 50 -40 60 -52 11 -12 40 -50 65 -84 26 -35 50
-77 54 -92 4 -16 11 -29 16 -29 5 0 10 -9 10 -21 0 -12 4 -21 9 -21 5 0 12
-15 15 -34 3 -19 11 -65 17 -103 8 -47 10 -1472 8 -4651 -2 -3899 -4 -4589
-17 -4620 -8 -20 -18 -46 -22 -58 -5 -11 -22 -49 -38 -84 -17 -34 -37 -72 -46
-83 -9 -11 -44 -49 -79 -84 -36 -35 -76 -74 -91 -87 -15 -13 -35 -24 -44 -24
-9 0 -17 -4 -17 -8 0 -4 -20 -17 -45 -27 -24 -11 -54 -24 -65 -28 -12 -4 -38
-14 -58 -22 -31 -13 -723 -15 -4630 -17 -3184 -2 -4615 0 -4662 8 -38 6 -84
14 -103 17 -19 3 -34 9 -34 13 0 4 -24 16 -53 27 -28 11 -52 24 -52 29 0 4 -7
8 -15 8 -8 0 -28 11 -44 24 -16 13 -55 49 -87 81 -32 32 -68 70 -80 84 -11 15
-34 55 -51 89 -16 35 -33 73 -38 84 -4 12 -14 38 -22 58 -13 31 -15 722 -17
4628 -2 3225 0 4610 8 4652 6 33 14 75 17 94 3 19 10 34 15 34 5 0 10 9 10 21
0 12 4 21 10 21 6 0 11 5 11 12 0 6 8 28 17 49 10 21 23 44 29 50 6 7 30 36
53 64 23 29 69 72 103 96 33 24 64 44 70 44 5 0 11 4 13 8 2 4 18 16 36 26 19
10 41 19 50 19 9 0 17 4 17 9 0 5 15 12 34 15 19 3 56 10 82 16 28 6 1888 9
4662 8 3927 -1 4620 -3 4651 -16z"/>
<path d="M2948 9915 c-28 -2 -50 -9 -50 -14 0 -6 -11 -10 -25 -10 -14 0 -51
-12 -82 -27 -31 -16 -71 -36 -89 -45 -18 -10 -46 -27 -62 -38 -16 -12 -60 -49
-96 -83 -36 -34 -66 -68 -66 -74 0 -6 -8 -17 -18 -23 -10 -7 -28 -30 -40 -53
-11 -22 -23 -43 -26 -45 -3 -3 -14 -24 -24 -45 -10 -22 -18 -50 -18 -61 0 -11
-4 -20 -10 -20 -5 0 -12 -25 -17 -56 -4 -30 -12 -58 -19 -62 -6 -5 -109 -8
-228 -8 -129 0 -231 4 -252 11 -20 6 -52 19 -72 28 -19 8 -52 30 -72 48 -20
18 -45 42 -54 53 -9 10 -27 31 -40 47 -13 15 -23 31 -23 35 0 4 -6 13 -14 21
-7 8 -18 24 -25 35 -7 11 -25 47 -40 79 -15 31 -34 71 -43 87 -8 16 -15 36
-15 45 0 8 -9 15 -20 15 -12 0 -24 -5 -27 -11 -4 -6 -16 -10 -27 -10 -12 0
-29 -5 -39 -10 -10 -6 -36 -13 -58 -17 -24 -4 -39 -12 -39 -21 0 -8 13 -47 28
-86 16 -39 37 -85 47 -103 11 -17 24 -41 29 -53 5 -11 32 -54 59 -94 27 -40
82 -104 120 -141 71 -67 71 -67 1 -136 -38 -38 -83 -88 -100 -111 -17 -23 -33
-45 -36 -48 -4 -2 -14 -19 -23 -36 -9 -18 -22 -41 -28 -53 -7 -11 -31 -61 -55
-111 -23 -49 -42 -98 -42 -107 0 -11 15 -21 45 -29 24 -6 54 -15 65 -20 12 -5
31 -11 42 -14 12 -3 30 -9 40 -13 14 -5 18 -2 18 15 0 12 5 22 11 22 5 0 10 8
10 18 0 10 15 48 34 86 19 38 38 71 42 73 4 2 8 8 8 15 0 6 20 37 44 70 24 32
65 78 91 103 26 25 58 48 71 51 14 3 25 10 25 14 0 4 27 14 60 22 42 11 126
15 271 15 209 0 209 0 226 -78 10 -44 28 -105 40 -136 13 -31 44 -88 69 -128
26 -39 74 -100 108 -135 33 -35 64 -63 69 -63 4 0 27 -14 50 -31 24 -18 63
-41 87 -52 24 -11 66 -30 94 -42 27 -12 93 -28 147 -34 53 -7 234 -14 401 -17
190 -3 338 0 394 7 49 6 118 16 152 22 35 6 76 13 92 17 16 3 29 9 29 14 0 4
13 11 30 14 16 3 66 30 110 60 45 29 112 84 149 121 37 37 68 71 68 75 0 5 9
19 19 32 19 24 19 24 1585 24 862 -1 1588 -4 1614 -7 26 -4 48 -11 48 -16 0
-5 6 -9 13 -9 8 0 37 -11 65 -26 28 -14 66 -41 86 -60 20 -19 43 -48 51 -65 9
-18 16 -61 16 -106 0 -55 -6 -88 -23 -122 -12 -25 -42 -64 -65 -85 -24 -21
-67 -50 -96 -65 -29 -14 -79 -32 -111 -39 -44 -11 -369 -15 -1438 -20 -973 -5
-1408 -10 -1474 -19 -51 -7 -113 -18 -137 -24 -23 -7 -52 -15 -64 -20 -11 -4
-47 -16 -78 -26 -32 -10 -83 -30 -113 -44 -30 -13 -59 -24 -65 -24 -6 0 -12
-4 -12 -8 0 -5 -19 -17 -42 -28 -23 -11 -41 -24 -41 -29 0 -5 -6 -9 -14 -9 -7
0 -32 -17 -55 -37 -23 -20 -45 -36 -49 -36 -4 0 -43 -36 -87 -80 -43 -44 -79
-83 -79 -87 0 -3 -14 -23 -31 -43 -18 -21 -32 -40 -32 -44 0 -4 -6 -14 -13
-22 -7 -7 -22 -28 -32 -47 -10 -18 -18 -40 -18 -49 0 -9 -5 -17 -10 -17 -6 0
-11 -7 -11 -16 0 -8 -4 -15 -10 -15 -5 0 -12 -19 -16 -42 -4 -24 -12 -42 -17
-42 -5 0 -9 -14 -9 -30 0 -16 -5 -34 -10 -39 -5 -6 -17 -57 -26 -113 -9 -57
-17 -144 -17 -194 0 -50 5 -119 12 -154 6 -35 16 -83 21 -106 6 -23 13 -55 16
-71 3 -16 10 -28 14 -28 5 0 12 -19 16 -42 4 -24 10 -42 14 -42 4 0 13 -16 21
-35 7 -18 18 -41 23 -49 6 -9 13 -23 17 -32 4 -9 20 -36 36 -61 16 -25 47 -67
69 -94 22 -27 52 -61 67 -76 14 -14 52 -50 84 -78 31 -28 95 -76 142 -106 46
-30 117 -69 157 -86 40 -18 92 -38 115 -46 23 -8 47 -18 52 -22 6 -5 21 -8 34
-8 13 0 26 -5 29 -10 4 -5 38 -13 77 -16 39 -4 80 -12 92 -19 14 -8 198 -14
572 -19 370 -5 565 -12 593 -20 23 -7 53 -15 66 -18 13 -3 24 -10 24 -14 0 -5
10 -11 23 -14 13 -4 41 -21 63 -39 22 -18 52 -55 68 -82 23 -39 29 -61 29
-112 -1 -42 -8 -78 -24 -111 -13 -26 -40 -65 -60 -86 -20 -22 -41 -39 -47 -39
-6 0 -20 -8 -31 -18 -11 -10 -48 -27 -81 -36 -34 -10 -84 -23 -111 -29 -28 -6
-93 -12 -145 -11 -94 0 -94 0 -94 -424 0 -342 3 -427 14 -443 14 -19 20 -19
217 -1 112 10 211 23 222 28 10 6 32 10 50 10 17 0 34 4 37 9 3 5 25 12 48 16
24 4 51 11 61 16 10 5 30 14 44 20 14 6 55 24 89 40 35 16 94 48 132 71 37 23
70 45 73 49 3 3 24 20 47 37 23 17 74 64 112 104 39 41 87 99 108 130 21 31
38 60 38 65 0 4 4 10 9 12 5 2 28 41 52 87 24 46 44 91 44 100 0 10 3 21 7 25
4 4 13 25 21 46 7 22 17 67 20 100 4 33 11 63 16 66 5 3 9 78 9 167 0 89 -4
164 -9 167 -5 3 -12 32 -15 64 -3 31 -19 94 -35 139 -16 45 -45 112 -65 150
-20 38 -39 71 -43 74 -3 2 -12 14 -19 26 -8 11 -17 28 -21 36 -4 9 -17 26 -29
39 -12 12 -38 42 -58 66 -20 25 -42 50 -49 57 -6 6 -24 21 -40 32 -15 11 -38
29 -51 39 -12 11 -28 23 -34 29 -6 5 -32 22 -56 37 -25 16 -66 40 -91 54 -25
14 -53 26 -62 26 -9 0 -16 3 -16 8 0 4 -27 17 -60 28 -34 11 -68 24 -76 28 -9
4 -38 13 -63 20 -26 7 -68 15 -92 18 -25 2 -45 8 -45 13 0 5 -32 12 -71 15
-39 4 -312 10 -606 14 -375 6 -542 11 -557 20 -11 7 -44 22 -73 33 -28 11 -71
37 -96 56 -25 19 -56 57 -69 83 -13 25 -28 48 -32 50 -4 2 -8 36 -8 76 0 59 5
82 28 122 15 28 33 55 39 62 7 6 27 20 46 31 19 11 34 24 34 28 0 4 17 11 37
14 20 4 39 12 42 17 4 5 22 9 42 9 19 0 38 5 42 11 4 6 457 10 1321 11 723 0
1366 5 1430 10 63 5 140 12 171 16 30 4 57 11 61 16 3 5 15 10 27 10 12 0 49
7 81 17 32 9 78 26 102 36 24 10 56 22 71 26 15 4 28 11 28 16 0 5 7 10 16 10
8 0 47 19 86 44 39 24 83 53 98 65 15 12 41 31 58 43 16 11 58 50 93 85 35 35
77 82 95 104 17 22 33 44 35 51 3 6 13 19 22 30 10 10 39 60 63 111 25 50 49
101 54 112 5 12 16 43 23 69 8 25 22 68 30 94 10 33 14 106 14 247 0 137 -4
214 -14 247 -8 25 -18 54 -22 63 -5 9 -12 31 -16 49 -4 19 -16 52 -27 76 -11
23 -21 46 -20 52 0 7 -5 12 -10 12 -5 0 -13 14 -17 31 -4 17 -10 32 -15 32 -5
0 -11 8 -15 18 -3 10 -12 28 -19 39 -8 12 -16 24 -19 27 -3 2 -24 28 -47 57
-23 29 -59 69 -80 90 -20 20 -57 53 -82 73 -24 20 -54 45 -66 55 -12 10 -25
19 -29 19 -4 0 -16 8 -27 18 -12 11 -38 27 -59 37 -21 10 -44 18 -50 18 -6 0
-11 4 -11 8 0 4 -19 16 -43 26 -23 10 -51 19 -63 19 -11 0 -20 4 -20 10 0 6
-12 11 -27 11 -14 0 -26 3 -26 7 0 5 -39 17 -87 27 -47 11 -103 25 -123 31
-27 9 -465 13 -1685 16 -906 2 -1650 7 -1654 12 -3 5 -15 22 -26 38 -12 16
-45 52 -74 80 -29 28 -58 51 -64 51 -7 0 -14 4 -16 10 -2 5 -33 26 -68 45 -35
20 -87 45 -115 55 -29 10 -61 23 -73 30 -15 9 -157 13 -498 13 -263 1 -501 0
-528 -3z m107 -362 c23 -13 43 -29 43 -37 0 -7 4 -13 10 -13 5 0 15 -20 22
-44 6 -25 8 -65 4 -92 -5 -35 -17 -57 -45 -86 -29 -28 -51 -40 -86 -45 -26 -3
-66 -2 -89 3 -29 7 -55 24 -82 54 -36 41 -39 49 -39 106 0 41 6 72 18 91 10
15 23 33 29 40 6 6 25 18 42 27 18 9 54 17 81 18 32 1 63 -7 92 -22z m-47
-607 c4 -6 15 -10 25 -10 10 0 34 -15 52 -33 18 -18 38 -52 45 -76 6 -23 8
-61 5 -85 -4 -24 -19 -57 -35 -75 -16 -18 -44 -41 -62 -50 -19 -10 -51 -17
-71 -17 -20 0 -55 8 -77 18 -21 10 -46 28 -55 39 -9 12 -22 32 -29 46 -7 14
-13 46 -13 73 0 31 9 62 25 91 14 24 39 49 56 57 16 8 36 18 45 23 9 4 31 9
49 9 19 0 37 -4 40 -10z"/>
<path d="M9195 7930 c-14 -21 -39 -63 -55 -92 -17 -29 -33 -55 -37 -57 -4 -3
-10 -16 -15 -29 -4 -13 -11 -24 -17 -24 -5 0 -9 -7 -9 -16 0 -8 -5 -15 -11
-15 -6 0 -10 -5 -10 -11 0 -6 -19 -41 -42 -78 -24 -36 -42 -71 -42 -77 0 -6
-4 -13 -9 -15 -5 -2 -26 -31 -47 -64 -22 -33 -39 -64 -39 -69 0 -5 -7 -15 -15
-22 -8 -6 -22 -27 -32 -46 -9 -18 -22 -42 -29 -54 -7 -11 -29 -45 -47 -75 -19
-31 -34 -60 -34 -66 0 -7 -4 -11 -9 -11 -4 0 -17 -18 -28 -40 -12 -22 -24 -42
-27 -44 -4 -3 -19 -27 -33 -53 -15 -26 -64 -109 -109 -184 -45 -75 -86 -139
-89 -141 -4 -3 -10 -16 -15 -29 -4 -13 -11 -24 -17 -24 -5 0 -9 -7 -9 -16 0
-8 -5 -15 -10 -15 -5 0 -12 -12 -16 -27 -3 -14 -11 -26 -17 -26 -5 0 -10 -7
-10 -16 0 -8 -4 -16 -8 -16 -4 0 -17 -20 -29 -44 -11 -25 -29 -54 -39 -65 -10
-11 -21 -30 -25 -42 -4 -12 -10 -24 -14 -27 -4 -3 -20 -29 -37 -58 -16 -29
-33 -55 -36 -57 -3 -3 -16 -25 -27 -48 -12 -23 -24 -44 -26 -47 -3 -3 -19 -25
-35 -50 -16 -24 -28 -49 -28 -55 0 -6 -5 -10 -11 -10 -5 0 -13 -12 -17 -27 -3
-14 -10 -26 -16 -26 -5 0 -9 -5 -9 -11 0 -6 -5 -17 -11 -24 -6 -7 -29 -44 -52
-83 -23 -38 -42 -75 -42 -81 0 -6 -4 -11 -10 -11 -5 0 -13 -10 -17 -23 -4 -12
-15 -31 -24 -41 -10 -10 -31 -45 -48 -77 -17 -32 -34 -58 -39 -58 -5 0 -9 -7
-9 -16 0 -8 -6 -21 -13 -29 -7 -7 -22 -30 -33 -50 -12 -20 -24 -39 -27 -42 -4
-3 -15 -22 -25 -42 -10 -20 -24 -46 -31 -57 -7 -12 -19 -27 -26 -35 -7 -8 -13
-21 -13 -29 0 -9 -5 -15 -10 -15 -6 0 -11 -5 -11 -11 0 -6 -5 -17 -11 -24 -6
-7 -28 -41 -49 -76 -20 -34 -45 -77 -54 -94 -10 -17 -21 -36 -25 -42 -5 -6
-20 -28 -33 -49 -14 -21 -29 -48 -32 -60 -4 -13 -12 -22 -17 -22 -6 0 -10 -7
-10 -14 0 -8 -9 -24 -21 -37 -12 -12 -21 -26 -21 -31 0 -6 -13 -28 -29 -51
-16 -22 -47 -71 -68 -107 -22 -37 -39 -71 -39 -76 0 -6 -4 -10 -9 -10 -4 0
-22 -26 -38 -58 -17 -32 -34 -57 -39 -57 -5 0 -9 -6 -9 -13 0 -6 -15 -36 -34
-65 -18 -30 -36 -56 -39 -59 -3 -3 -11 -15 -17 -26 -6 -12 -20 -38 -32 -58
-11 -20 -25 -42 -32 -49 -7 -8 -18 -28 -26 -45 -8 -18 -18 -32 -22 -32 -4 0
-8 -7 -8 -15 0 -8 -6 -21 -13 -29 -7 -8 -20 -26 -28 -40 -8 -15 -36 -62 -62
-105 -26 -43 -61 -99 -77 -124 -17 -24 -30 -49 -30 -55 0 -5 -5 -10 -10 -10
-6 0 -11 -7 -11 -15 0 -8 -6 -21 -13 -29 -7 -8 -20 -26 -28 -40 -8 -15 -23
-40 -32 -57 -9 -17 -23 -39 -32 -49 -9 -10 -25 -37 -36 -59 -12 -22 -32 -54
-45 -72 -13 -18 -24 -36 -24 -39 0 -4 -33 -58 -72 -121 -40 -63 -76 -125 -80
-137 -4 -12 -11 -22 -17 -22 -5 0 -9 -6 -9 -12 0 -6 -12 -26 -27 -45 -14 -19
-26 -40 -26 -47 0 -7 -5 -12 -10 -12 -6 0 -11 -5 -11 -11 0 -6 -31 -60 -68
-120 -38 -60 -68 -111 -68 -114 0 -3 -30 -51 -65 -108 -36 -57 -69 -105 -74
-107 -5 -2 -8 -12 -8 -23 0 -10 -8 -24 -16 -32 -9 -7 -16 -17 -16 -22 0 -6
-12 -23 -26 -38 -21 -23 -26 -25 -26 -10 0 10 -5 18 -11 18 -6 0 -10 7 -10 16
0 8 -5 15 -10 15 -5 0 -12 12 -16 27 -3 14 -11 26 -17 26 -5 0 -10 5 -10 11 0
6 -5 17 -11 24 -6 7 -34 52 -64 102 -29 49 -57 90 -63 92 -5 2 -9 10 -9 18 0
8 -6 20 -14 28 -7 8 -21 30 -31 51 -10 20 -24 45 -31 57 -7 11 -21 29 -32 41
-10 11 -21 31 -25 42 -3 12 -9 25 -13 28 -3 2 -15 21 -26 42 -12 20 -26 46
-32 57 -6 12 -14 24 -18 27 -3 2 -33 50 -66 105 -33 54 -66 109 -73 120 -6 12
-14 24 -17 27 -3 2 -14 21 -25 42 -12 20 -26 46 -32 57 -6 11 -17 26 -23 34
-7 7 -19 27 -27 45 -7 17 -17 31 -22 31 -4 1 -7 5 -8 11 0 6 -14 30 -31 54
-17 24 -32 50 -32 58 1 8 -4 14 -10 14 -6 0 -10 4 -10 10 0 5 -25 49 -55 97
-29 48 -58 89 -63 91 -4 2 -8 10 -8 19 0 8 -12 31 -27 50 -14 19 -26 40 -26
46 0 7 -4 13 -9 13 -6 0 -13 11 -16 26 -4 14 -12 26 -17 26 -6 0 -10 7 -10 16
0 8 -5 16 -10 16 -5 -1 -12 8 -15 18 -3 10 -17 37 -30 60 -13 23 -27 45 -30
48 -4 2 -27 39 -53 82 -25 42 -57 96 -70 120 -13 24 -27 46 -32 49 -4 3 -16
22 -27 43 -12 20 -26 46 -32 57 -6 11 -17 27 -24 35 -8 8 -13 19 -14 24 0 6
-9 21 -21 33 -12 13 -24 34 -27 47 -4 13 -10 24 -16 24 -5 0 -9 7 -9 16 0 8
-5 16 -10 16 -6 0 -11 5 -11 11 0 7 -37 72 -83 145 -45 73 -88 144 -96 159 -7
14 -16 28 -20 31 -3 3 -15 23 -27 45 -11 22 -28 49 -36 59 -9 10 -24 32 -33
49 -9 17 -23 42 -31 57 -9 14 -21 32 -28 40 -8 8 -13 21 -13 29 0 8 -5 15 -10
15 -5 0 -20 20 -32 45 -12 24 -51 89 -85 144 -35 55 -73 119 -85 142 -12 23
-25 44 -29 47 -3 3 -12 15 -20 26 -7 12 -16 30 -19 40 -4 10 -10 18 -14 18 -5
0 -12 8 -15 18 -4 10 -13 28 -20 40 -7 12 -35 57 -63 101 -27 44 -49 85 -49
92 0 6 -4 12 -9 12 -5 0 -16 12 -24 28 -8 16 -33 60 -56 98 -23 37 -46 69 -50
71 -5 2 -8 8 -8 14 0 5 -16 35 -36 65 -19 31 -39 66 -43 79 -4 12 -11 23 -17
23 -5 0 -9 4 -9 10 0 6 -9 20 -19 31 -10 11 -34 52 -54 92 -20 39 -39 74 -43
77 -4 2 -32 44 -61 91 -30 48 -54 92 -54 97 0 6 -5 11 -10 11 -5 0 -12 11 -15
24 -3 13 -15 33 -25 45 -10 11 -28 37 -39 57 -11 20 -25 46 -31 58 -7 11 -14
23 -17 26 -3 3 -18 25 -34 50 -16 24 -29 48 -29 53 0 5 -12 23 -26 40 -15 17
-26 34 -26 38 0 4 -32 58 -70 121 -39 62 -74 114 -79 116 -5 2 -9 10 -9 18 0
7 -8 28 -18 46 -10 18 -22 32 -27 32 -4 0 -7 8 -7 16 0 9 -5 16 -11 16 -6 0
-10 7 -10 15 0 8 -6 21 -14 29 -7 8 -19 26 -28 40 -8 15 -22 40 -31 57 -9 17
-22 37 -29 44 -6 7 -29 44 -52 82 -22 38 -46 69 -53 69 -7 0 -28 -8 -47 -18
-19 -10 -38 -21 -40 -24 -3 -3 -25 -15 -48 -26 -23 -12 -44 -24 -47 -28 -3 -3
-27 -19 -52 -35 -26 -16 -50 -33 -53 -36 -3 -4 -25 -16 -50 -27 -24 -10 -45
-22 -45 -26 0 -4 -18 -15 -42 -25 -23 -11 -41 -23 -41 -28 0 -4 -9 -11 -19
-14 -10 -4 -32 -15 -50 -26 -17 -11 -33 -30 -35 -44 -2 -13 1 -27 5 -30 5 -4
18 -24 29 -46 11 -22 24 -40 29 -39 5 0 9 -7 9 -15 0 -8 7 -20 16 -28 8 -7 16
-21 16 -32 0 -11 4 -20 10 -20 6 0 11 -7 11 -15 0 -8 3 -16 8 -18 4 -2 23 -28
42 -57 18 -30 33 -57 34 -61 0 -4 26 -48 59 -98 33 -51 66 -103 73 -115 7 -13
21 -39 32 -58 11 -19 28 -44 38 -55 10 -12 22 -32 25 -45 3 -13 10 -24 15 -24
5 0 10 -7 10 -16 0 -8 4 -15 10 -15 6 0 11 -6 11 -12 0 -7 30 -61 68 -121 37
-60 68 -113 68 -119 0 -6 4 -11 9 -11 4 0 16 -15 26 -34 10 -19 31 -57 47 -84
16 -28 36 -59 45 -70 8 -10 22 -32 31 -49 9 -17 24 -42 32 -57 8 -14 21 -32
28 -40 7 -8 13 -21 13 -29 0 -8 4 -15 8 -15 4 0 13 -9 18 -20 6 -12 53 -91
105 -176 52 -86 107 -175 123 -199 16 -24 30 -49 30 -55 0 -7 4 -12 9 -12 6 0
13 -10 17 -21 4 -12 38 -73 77 -135 38 -61 75 -122 82 -133 7 -11 42 -70 79
-131 36 -61 79 -129 95 -151 16 -23 29 -48 29 -55 0 -8 5 -14 11 -14 5 0 10
-8 10 -16 0 -9 4 -16 9 -16 5 0 12 -8 16 -18 3 -10 12 -28 19 -40 8 -11 17
-23 20 -26 4 -3 14 -20 24 -39 9 -18 45 -78 80 -133 35 -55 63 -105 63 -111 0
-6 4 -11 9 -11 6 0 12 -11 16 -24 3 -13 14 -33 24 -45 11 -11 28 -37 39 -57
12 -20 26 -46 32 -57 6 -12 17 -27 24 -35 8 -8 14 -18 14 -22 0 -5 8 -17 18
-29 10 -11 28 -39 39 -62 11 -23 51 -91 88 -152 37 -61 75 -122 85 -136 9 -15
26 -44 37 -66 12 -22 24 -39 29 -39 4 0 8 -8 8 -16 0 -9 4 -16 8 -16 5 0 17
-19 27 -42 11 -23 23 -42 29 -42 5 0 10 -5 10 -10 0 -6 29 -59 65 -118 37 -60
73 -121 81 -137 8 -16 18 -29 23 -29 5 0 9 -5 9 -12 0 -7 24 -50 52 -95 29
-45 53 -87 53 -93 0 -5 4 -10 10 -10 5 0 13 -10 17 -23 4 -12 15 -31 24 -41
10 -10 27 -37 38 -59 11 -22 56 -96 99 -165 42 -70 89 -148 104 -174 14 -26
29 -50 33 -52 3 -3 15 -23 27 -45 11 -22 24 -39 28 -39 5 0 9 -5 9 -11 0 -6
29 -59 66 -118 37 -59 90 -147 118 -194 29 -48 55 -87 60 -87 4 0 8 -7 8 -15
0 -8 6 -21 13 -29 8 -8 23 -34 34 -58 11 -25 23 -45 28 -45 5 0 9 -7 9 -16 0
-8 4 -15 9 -15 5 0 12 -9 15 -19 4 -10 12 -28 20 -39 7 -12 16 -24 20 -26 3
-3 16 -25 28 -48 13 -23 51 -87 85 -141 35 -55 74 -120 86 -145 13 -24 28 -44
32 -44 5 0 9 -5 9 -11 0 -6 19 -41 42 -78 23 -36 42 -71 42 -78 0 -7 5 -12 11
-12 5 0 10 -7 10 -16 0 -8 5 -16 10 -16 6 0 14 -11 17 -26 4 -14 10 -26 14
-26 5 0 17 -18 28 -39 11 -22 23 -42 26 -45 3 -3 31 -49 63 -102 31 -54 60
-97 65 -97 4 0 8 -8 8 -16 0 -9 5 -16 11 -16 5 0 10 -9 10 -20 0 -11 7 -25 16
-33 8 -7 16 -17 16 -23 -1 -5 6 -16 14 -24 13 -13 18 -13 33 2 9 9 22 27 27
39 5 12 15 32 23 43 7 12 16 24 19 27 3 2 18 26 33 52 14 26 35 63 46 81 11
19 23 34 28 34 4 0 8 5 8 12 0 6 15 35 34 66 18 30 40 64 47 75 8 12 16 29 20
39 3 10 10 19 14 19 5 -1 11 11 15 26 3 14 11 26 17 26 5 0 10 5 10 11 0 6 24
48 53 93 28 45 52 87 52 94 0 7 4 12 9 12 5 0 18 18 28 39 10 22 22 42 26 45
4 3 21 29 37 58 16 29 64 107 107 174 42 68 77 128 77 134 0 7 4 12 10 12 6 0
11 7 11 16 0 8 3 15 8 15 4 0 17 18 28 40 11 22 51 89 88 150 37 60 76 123 87
138 11 16 20 34 20 40 0 6 4 11 9 11 5 0 12 11 16 26 3 14 11 26 17 26 5 0 10
4 10 10 0 5 24 49 52 97 29 48 60 97 70 108 9 12 23 35 31 53 9 17 44 76 78
131 35 55 73 119 86 142 12 23 25 44 29 47 5 3 11 16 16 29 4 13 11 24 17 24
5 0 10 7 10 15 0 9 4 16 10 16 6 0 11 7 11 16 0 8 4 16 10 16 5 0 13 11 17 26
3 14 10 26 16 26 5 0 9 4 9 10 0 5 24 47 53 94 28 47 52 89 52 95 0 6 4 11 8
11 4 0 21 26 38 58 17 32 34 58 39 58 5 0 10 6 10 14 -1 9 6 22 14 30 8 8 28
40 45 71 16 30 36 68 45 83 8 15 18 29 23 31 5 2 9 10 9 18 0 8 4 15 8 15 5 0
18 18 29 39 11 22 60 103 107 181 48 78 90 147 95 153 5 6 18 27 29 47 12 20
24 39 27 42 4 3 10 16 14 29 4 13 12 24 17 24 6 0 10 5 10 12 0 6 11 26 24 44
13 18 31 47 39 64 9 18 19 34 22 37 4 3 18 25 32 49 13 24 40 69 59 100 19 31
40 65 47 77 7 11 16 23 19 26 2 3 10 15 16 26 7 12 27 50 46 84 20 35 38 66
41 69 4 2 13 14 20 26 7 11 16 28 20 37 4 8 47 78 95 154 48 77 87 141 87 143
0 3 45 76 100 164 55 88 100 164 100 169 0 6 4 10 10 10 5 0 13 12 17 26 3 15
10 27 16 27 5 0 9 5 9 11 0 6 12 26 26 45 15 19 27 38 27 41 0 4 32 59 72 123
40 63 76 125 80 136 3 12 11 22 16 22 6 0 10 7 10 15 0 9 4 16 10 16 5 0 13
11 17 24 4 13 10 26 14 29 3 2 13 17 21 31 8 14 23 40 32 58 9 17 19 34 22 36
3 3 17 25 32 48 14 23 31 51 38 63 7 11 17 31 23 43 5 12 16 28 24 37 7 8 23
32 34 54 11 21 24 39 29 39 5 0 9 7 9 15 0 8 6 21 13 29 7 8 22 30 32 51 10
20 24 46 31 57 7 12 15 24 18 27 3 2 11 14 19 26 7 11 16 29 19 39 4 10 11 19
16 19 5 0 9 7 9 15 0 9 4 16 10 16 5 0 13 10 17 23 4 12 23 48 43 78 19 31 35
60 35 66 0 5 4 11 8 13 4 2 20 23 35 46 15 23 37 61 49 84 12 23 31 53 43 67
13 14 23 31 23 37 0 7 8 22 18 33 10 11 28 40 39 65 12 24 25 44 29 44 4 0 8
6 8 12 0 6 -6 17 -13 23 -7 7 -41 27 -74 44 -33 18 -60 35 -60 39 0 4 -11 10
-24 14 -13 4 -38 19 -57 32 -18 14 -38 26 -44 26 -6 0 -11 4 -11 9 0 5 -9 12
-19 15 -10 3 -37 17 -60 30 -23 13 -45 27 -47 30 -3 3 -25 17 -48 32 -23 15
-62 38 -86 50 -45 23 -45 23 -69 -17z"/>
</g>
</svg>
